<svg xmlns="http://www.w3.org/2000/svg" enable-background="new 0 0 512 512" viewBox="0 0 512 512"><path d="M83.144 72.535v21.647H64.889C65.643 83.897 73.128 75.335 83.144 72.535zM272.801 94.183h-18.255V72.536C264.562 75.335 271.993 83.952 272.801 94.183zM243.776 5.385v88.798H93.913V5.385c0-4.914 6.002-7.213 9.316-3.661l13.462 14.539L130.1 1.724c2.046-2.154 5.869-2.154 7.916 0l13.409 14.539 13.462-14.539c1.024-1.077 2.423-1.723 3.931-1.723 1.508 0 2.961.647 3.985 1.723l13.409 14.539 13.462-14.539c1.993-2.154 5.869-2.154 7.862 0l13.462 14.539 13.409-14.539C237.777-1.888 243.776.585 243.776 5.385zM181.378 280.164h-25.092c-2.939 0-5.33 2.39-5.33 5.33 0 2.939 2.39 5.332 5.33 5.332h25.092c2.939 0 5.33-2.393 5.33-5.332C186.708 282.554 184.319 280.164 181.378 280.164zM181.378 413.725h-25.092c-2.939 0-5.33 2.39-5.33 5.33s2.39 5.332 5.33 5.332h25.092c2.939 0 5.33-2.393 5.33-5.332S184.319 413.725 181.378 413.725zM105.772 280.164H80.682c-2.939 0-5.332 2.39-5.332 5.33 0 2.939 2.393 5.332 5.332 5.332h25.089c2.939 0 5.332-2.393 5.332-5.332C111.104 282.554 108.711 280.164 105.772 280.164zM181.378 369.204h-25.092c-2.939 0-5.33 2.39-5.33 5.33s2.39 5.332 5.33 5.332h25.092c2.939 0 5.33-2.393 5.33-5.332C186.708 371.595 184.319 369.204 181.378 369.204zM181.378 458.243h-25.092c-2.939 0-5.33 2.393-5.33 5.332s2.39 5.33 5.33 5.33h25.092c2.939 0 5.33-2.39 5.33-5.33C186.708 460.636 184.319 458.243 181.378 458.243zM105.772 458.243H80.682c-2.939 0-5.332 2.393-5.332 5.332s2.393 5.33 5.332 5.33h25.089c2.939 0 5.332-2.39 5.332-5.33C111.104 460.636 108.711 458.243 105.772 458.243zM105.772 324.685H80.682c-2.939 0-5.332 2.39-5.332 5.33 0 2.939 2.393 5.332 5.332 5.332h25.089c2.939 0 5.332-2.393 5.332-5.332C111.104 327.074 108.711 324.685 105.772 324.685zM105.772 369.204H80.682c-2.939 0-5.332 2.39-5.332 5.33s2.393 5.332 5.332 5.332h25.089c2.939 0 5.332-2.393 5.332-5.332C111.104 371.595 108.711 369.204 105.772 369.204zM105.772 413.725H80.682c-2.939 0-5.332 2.39-5.332 5.33s2.393 5.332 5.332 5.332h25.089c2.939 0 5.332-2.393 5.332-5.332S108.711 413.725 105.772 413.725zM181.378 324.685h-25.092c-2.939 0-5.33 2.39-5.33 5.33 0 2.939 2.39 5.332 5.33 5.332h25.092c2.939 0 5.33-2.393 5.33-5.332C186.708 327.074 184.319 324.685 181.378 324.685zM256.983 369.204h-25.089c-2.939 0-5.332 2.39-5.332 5.33s2.393 5.332 5.332 5.332h25.089c2.939 0 5.332-2.393 5.332-5.332C262.315 371.595 259.923 369.204 256.983 369.204z"/><path d="M278.455,104.952H59.181c-14.808,0-26.925,12.063-26.925,26.925v353.198c0,14.808,12.116,26.925,26.925,26.925h219.274c14.862,0,26.925-12.116,26.925-26.925V131.877C305.38,117.015,293.318,104.952,278.455,104.952z M105.76,479.69H80.667c-8.885,0-16.101-7.217-16.101-16.101c0-8.885,7.216-16.101,16.101-16.101h25.094c8.885,0,16.101,7.216,16.101,16.101C121.862,472.474,114.645,479.69,105.76,479.69z M105.76,435.157H80.667c-8.885,0-16.101-7.217-16.101-16.101c0-8.885,7.216-16.101,16.101-16.101h25.094c8.885,0,16.101,7.216,16.101,16.101C121.862,427.941,114.645,435.157,105.76,435.157z M105.76,390.623H80.667c-8.885,0-16.101-7.217-16.101-16.101c0-8.885,7.216-16.1,16.101-16.1h25.094c8.885,0,16.101,7.216,16.101,16.1C121.862,383.407,114.645,390.623,105.76,390.623z M105.76,346.09H80.667c-8.885,0-16.101-7.216-16.101-16.101c0-8.832,7.216-16.101,16.101-16.101h25.094c8.885,0,16.101,7.27,16.101,16.101C121.862,338.874,114.645,346.09,105.76,346.09z M105.76,301.61H80.667c-8.885,0-16.101-7.216-16.101-16.101c0-8.885,7.216-16.101,16.101-16.101h25.094c8.885,0,16.101,7.217,16.101,16.101C121.862,294.394,114.645,301.61,105.76,301.61z M181.365,479.69h-25.094c-8.885,0-16.102-7.217-16.102-16.101c0-8.885,7.216-16.101,16.102-16.101h25.094c8.885,0,16.101,7.216,16.101,16.101S190.251,479.69,181.365,479.69z M181.365,435.157h-25.094c-8.885,0-16.102-7.217-16.102-16.101c0-8.885,7.216-16.101,16.102-16.101h25.094c8.885,0,16.101,7.216,16.101,16.101S190.251,435.157,181.365,435.157z M181.365,390.623h-25.094c-8.885,0-16.102-7.217-16.102-16.101c0-8.885,7.216-16.1,16.102-16.1h25.094c8.885,0,16.101,7.216,16.101,16.1C197.465,383.407,190.251,390.623,181.365,390.623z M181.365,346.09h-25.094c-8.885,0-16.102-7.216-16.102-16.101c0-8.832,7.216-16.101,16.102-16.101h25.094c8.885,0,16.101,7.27,16.101,16.101C197.465,338.874,190.251,346.09,181.365,346.09z M181.365,301.61h-25.094c-8.885,0-16.102-7.216-16.102-16.101c0-8.885,7.216-16.101,16.102-16.101h25.094c8.885,0,16.101,7.217,16.101,16.101C197.465,294.394,190.251,301.61,181.365,301.61z M256.969,479.69h-25.094c-8.885,0-16.101-7.217-16.101-16.101c0-8.885,7.216-16.101,16.101-16.101h25.094c8.885,0,16.102,7.216,16.102,16.101S265.854,479.69,256.969,479.69z M256.969,435.157h-25.094c-8.885,0-16.101-7.217-16.101-16.101c0-8.885,7.216-16.101,16.101-16.101h25.094c8.885,0,16.102,7.216,16.102,16.101S265.854,435.157,256.969,435.157z M256.969,390.623h-25.094c-8.885,0-16.101-7.217-16.101-16.101c0-8.885,7.216-16.1,16.101-16.1h25.094c8.885,0,16.102,7.216,16.102,16.1C273.071,383.407,265.854,390.623,256.969,390.623z M256.969,346.09h-25.094c-8.885,0-16.101-7.216-16.101-16.101c0-8.832,7.216-16.101,16.101-16.101h25.094c8.885,0,16.102,7.27,16.102,16.101C273.071,338.874,265.854,346.09,256.969,346.09z M256.969,301.61h-25.094c-8.885,0-16.101-7.216-16.101-16.101c0-8.885,7.216-16.101,16.101-16.101h25.094c8.885,0,16.102,7.217,16.102,16.101C273.071,294.394,265.854,301.61,256.969,301.61z M273.071,231.714c0,8.939-7.216,16.155-16.155,16.155H80.721c-8.885,0-16.155-7.216-16.155-16.155v-78.297c0-8.939,7.27-16.155,16.155-16.155h176.196c8.939,0,16.155,7.217,16.155,16.155L273.071,231.714L273.071,231.714z"/><path d="M256.983 280.164h-25.089c-2.939 0-5.332 2.39-5.332 5.33 0 2.939 2.393 5.332 5.332 5.332h25.089c2.939 0 5.332-2.393 5.332-5.332C262.316 282.554 259.923 280.164 256.983 280.164zM256.983 413.725h-25.089c-2.939 0-5.332 2.39-5.332 5.33s2.393 5.332 5.332 5.332h25.089c2.939 0 5.332-2.393 5.332-5.332S259.923 413.725 256.983 413.725zM256.983 458.243h-25.089c-2.939 0-5.332 2.393-5.332 5.332s2.393 5.33 5.332 5.33h25.089c2.939 0 5.332-2.39 5.332-5.33C262.316 460.636 259.923 458.243 256.983 458.243zM256.983 324.685h-25.089c-2.939 0-5.332 2.39-5.332 5.33 0 2.939 2.393 5.332 5.332 5.332h25.089c2.939 0 5.332-2.393 5.332-5.332C262.316 327.074 259.923 324.685 256.983 324.685zM458.204 213.835H316.15v35.433h163.594v-13.893C479.744 223.475 470.052 213.835 458.204 213.835zM316.15 301.61v101.506h142.055c11.847 0 21.54-9.64 21.54-21.54v-79.967H316.15V301.61zM447.434 376.192h-30.102c-3.015 0-5.385-2.424-5.385-5.385 0-2.962 2.37-5.385 5.385-5.385h30.102c2.962 0 5.385 2.423 5.385 5.385C452.819 373.768 450.396 376.192 447.434 376.192zM447.434 346.09h-74.15c-2.961 0-5.385-2.369-5.385-5.385 0-2.962 2.423-5.385 5.385-5.385h74.15c2.962 0 5.385 2.423 5.385 5.385C452.819 343.72 450.396 346.09 447.434 346.09z"/><rect width="163.594" height="30.802" x="316.15" y="260.039"/></svg>